<svg width="375" height="366" viewBox="0 0 375 366" fill="none" xmlns="http://www.w3.org/2000/svg">
<circle cx="185.5" cy="214.5" r="151.5" fill="#D2ECBF"/>
<path d="M63.5962 258.526C59.2429 267.432 46.8002 283.141 31.8555 274.723C16.9109 266.306 23.1263 246.248 28.1021 237.271L13.9192 230.919" stroke="#121210" stroke-width="3" stroke-linecap="round"/>
<path d="M311.32 255.526C315.673 264.432 328.116 280.141 343.06 271.723C358.005 263.306 351.79 243.248 346.814 234.271L360.997 227.919" stroke="#121210" stroke-width="3" stroke-linecap="round"/>
<rect x="166" y="132" width="6" height="16" rx="3" fill="#121210"/>
<rect x="195" y="132" width="6" height="16" rx="3" fill="#121210"/>
<path d="M183 163C186.562 163 189.69 163.881 191.861 165.199C194.069 166.54 195 168.12 195 169.5C195 170.88 194.069 172.46 191.861 173.801C189.69 175.119 186.562 176 183 176C179.438 176 176.31 175.119 174.139 173.801C171.931 172.46 171 170.88 171 169.5C171 168.12 171.931 166.54 174.139 165.199C176.31 163.881 179.438 163 183 163Z" stroke="#121210" stroke-width="4"/>
<rect x="146" y="149" width="4" height="10" rx="2" fill="white"/>
<rect x="208" y="149" width="4" height="10" rx="2" fill="white"/>
<rect x="153" y="149" width="4" height="10" rx="2" fill="white"/>
<rect x="215" y="149" width="4" height="10" rx="2" fill="white"/>
<path d="M189.511 82H179.143C176.698 82 174.825 79.826 175.187 77.408L181.036 38.3302C181.727 33.7089 188.428 33.8209 188.965 38.4627L193.484 77.5405C193.759 79.9159 191.902 82 189.511 82Z" fill="white" stroke="#121210" stroke-width="4" stroke-linecap="round"/>
<path d="M183.227 1.6051V21.1438M213.967 33.5183L253.001 3.55897M221.611 64.4545L239.176 71.1302M158.831 30.4246L132.808 1.6051M147.12 61.6865H130.693" stroke="#121210" stroke-width="3" stroke-linecap="round"/>
</svg>
