<svg width="209" height="209" viewBox="0 0 209 209" fill="none" xmlns="http://www.w3.org/2000/svg">
<circle cx="104.5" cy="104.5" r="104.5" fill="#D2ECBF"/>
<path d="M130 167V167C133.777 168.889 138.223 168.889 142 167V167" stroke="#121210" stroke-width="5" stroke-linecap="round"/>
<rect x="119" y="140" width="6" height="16" rx="3" fill="#121210"/>
<rect x="148" y="140" width="6" height="16" rx="3" fill="#121210"/>
<path d="M28.8815 155.734C22.2148 154.567 8.18147 153.934 5.38147 160.734C2.58147 167.534 15.8815 171.234 22.8815 172.234L19.3813 178.234" stroke="#121210" stroke-width="3" stroke-linecap="round"/>
<path d="M194.05 159C195.717 159 199.25 159.9 200.05 163.5C201.05 168 192.55 170.5 190.55 173.5C188.95 175.9 191.217 177.5 192.55 178" stroke="#121210" stroke-width="3" stroke-linecap="round"/>
</svg>
