<svg width="136" height="261" viewBox="0 0 136 261" fill="none" xmlns="http://www.w3.org/2000/svg">
<path d="M30.1103 3.53135C13.0877 8.34184 29.2979 31.5755 29.2979 31.5755C29.2979 31.5755 -0.741222 26.9065 3.39019 44.9972C7.52159 63.0879 32.8239 47.0154 32.8239 47.0154C32.8239 47.0154 27.6199 73.8212 46.1847 69.536C64.7496 65.2507 48.5847 40.8316 48.5847 40.8316C48.5847 40.8316 74.2366 43.8207 70.6575 28.1483C67.0784 12.4759 44.1097 28.1565 44.1097 28.1565C44.1097 28.1565 47.1329 -1.27914 30.1103 3.53135Z" stroke="#B3B3B3" stroke-width="5"/>
<path d="M122.616 213.478C112.407 209.594 112.148 226.875 112.148 226.875C112.148 226.875 98.8543 213.596 94.4217 223.942C89.989 234.289 108.365 235.706 108.365 235.706C108.365 235.706 96.1527 246.889 106.941 251.595C117.73 256.3 118.437 238.457 118.437 238.457C118.437 238.457 130.147 249.31 133.987 240.346C137.828 231.383 120.755 230.629 120.755 230.629C120.755 230.629 132.824 217.363 122.616 213.478Z" stroke="#B3B3B3" stroke-width="4"/>
</svg>
