<svg width="280" height="166" viewBox="0 0 280 166" fill="none" xmlns="http://www.w3.org/2000/svg">
<path d="M184.11 3.53135C167.088 8.34184 183.298 31.5755 183.298 31.5755C183.298 31.5755 153.259 26.9065 157.39 44.9972C161.522 63.0879 186.824 47.0154 186.824 47.0154C186.824 47.0154 181.62 73.8212 200.185 69.536C218.75 65.2507 202.585 40.8316 202.585 40.8316C202.585 40.8316 228.237 43.8207 224.657 28.1483C221.078 12.4759 198.11 28.1565 198.11 28.1565C198.11 28.1565 201.133 -1.27914 184.11 3.53135Z" stroke="#B3B3B3" stroke-width="5"/>
<path d="M259.36 118.187C249.151 114.302 248.892 131.583 248.892 131.583C248.892 131.583 235.598 118.304 231.166 128.65C226.733 138.997 245.109 140.414 245.109 140.414C245.109 140.414 232.897 151.598 243.686 156.303C254.474 161.009 255.181 143.165 255.181 143.165C255.181 143.165 266.891 154.018 270.732 145.055C274.572 136.091 257.5 135.337 257.5 135.337C257.5 135.337 269.568 122.071 259.36 118.187Z" stroke="#B3B3B3" stroke-width="4"/>
<path d="M37.3597 29.1866C27.151 25.3023 26.8919 42.5833 26.8919 42.5833C26.8919 42.5833 13.5985 29.3038 9.1658 39.6504C4.73311 49.9971 23.1087 51.4138 23.1087 51.4138C23.1087 51.4138 10.8969 62.5977 21.6856 67.3032C32.4743 72.0087 33.1814 54.1655 33.1814 54.1655C33.1814 54.1655 44.8914 65.0181 48.7316 56.0546C52.5717 47.0911 35.4996 46.3375 35.4996 46.3375C35.4996 46.3375 47.5683 33.0708 37.3597 29.1866Z" stroke="#B3B3B3" stroke-width="4"/>
</svg>
