<svg width="27" height="27" viewBox="0 0 27 27" fill="none" xmlns="http://www.w3.org/2000/svg">
<g clip-path="url(#clip0_137_3752)">
<path d="M16.1341 9.86456C19.3019 14.3886 19.486 19.7252 16.5454 21.7843C13.6048 23.8434 8.65292 21.8451 5.48515 17.3211C2.31737 12.797 2.13324 7.46032 5.07387 5.4013C8.01451 3.34225 12.9664 5.34053 16.1341 9.86456Z" stroke="#121210" stroke-width="2" stroke-linecap="round" stroke-linejoin="round"/>
<path d="M10.5263 10.3552C8.19226 15.3606 8.93759 20.6481 12.1911 22.1653C15.4446 23.6824 19.9742 20.8546 22.3083 15.8492C24.6423 10.8438 23.897 5.55625 20.6435 4.03915C17.39 2.52201 12.8603 5.34981 10.5263 10.3552Z" stroke="#121210" stroke-width="2" stroke-linecap="round" stroke-linejoin="round"/>
<path d="M12.9514 6.55139C14.103 7.40814 15.1966 8.52572 16.1341 9.86451C19.3019 14.3885 19.486 19.7252 16.5454 21.7843C15.9314 22.2142 15.2298 22.4672 14.4751 22.5573" stroke="#121210" stroke-width="2" stroke-linecap="round" stroke-linejoin="round"/>
</g>
<defs>
<clipPath id="clip0_137_3752">
<rect width="24" height="24" fill="white" transform="translate(0.669434 2.43408) rotate(-5)"/>
</clipPath>
</defs>
</svg>
