<svg width="56" height="56" viewBox="0 0 56 56" fill="none" xmlns="http://www.w3.org/2000/svg">
<circle cx="28" cy="28" r="28" fill="#121210"/>
<rect width="24" height="24" transform="translate(16 16)" fill="#121210"/>
<path fill-rule="evenodd" clip-rule="evenodd" d="M38.4689 23.3643C39.08 20.1777 36.2824 17.3801 33.0958 17.9912L23.9467 19.7459C21.9579 20.1273 20.3673 21.6328 19.862 23.5889C18.8531 27.4945 22.4752 31.0639 26.3642 29.9203C26.4716 29.8887 26.5714 29.9885 26.5398 30.0959C25.3962 33.985 28.9656 37.607 32.8712 36.5981C34.8274 36.0928 36.3328 34.5022 36.7142 32.5134L38.4689 23.3643ZM33.3783 19.4644C35.5237 19.0529 37.4072 20.9364 36.9957 23.0818L35.2411 32.2308C34.9697 33.6457 33.8955 34.7843 32.496 35.1458C29.6989 35.8683 27.1695 33.2715 27.9789 30.519C28.3454 29.2727 27.1874 28.1147 25.941 28.4812C23.1886 29.2906 20.5918 26.7612 21.3143 23.9641C21.6759 22.5647 22.8144 21.4904 24.2293 21.219L33.3783 19.4644Z" fill="white"/>
<path d="M20.9445 32.3336C21.2374 32.0407 21.2374 31.5658 20.9445 31.2729C20.6517 30.98 20.1768 30.98 19.8839 31.2729L18.4697 32.6872C18.1768 32.98 18.1768 33.4549 18.4697 33.7478C18.7626 34.0407 19.2374 34.0407 19.5303 33.7478L20.9445 32.3336Z" fill="white"/>
<path d="M24.4801 33.0407C24.773 32.7478 24.773 32.2729 24.4801 31.98C24.1872 31.6872 23.7123 31.6872 23.4194 31.98L22.0052 33.3943C21.7123 33.6872 21.7123 34.162 22.0052 34.4549C22.2981 34.7478 22.773 34.7478 23.0659 34.4549L24.4801 33.0407Z" fill="white"/>
<path d="M25.1872 36.5762C25.4801 36.2833 25.4801 35.8085 25.1872 35.5156C24.8943 35.2227 24.4194 35.2227 24.1265 35.5156L22.7123 36.9298C22.4194 37.2227 22.4194 37.6976 22.7123 37.9905C23.0052 38.2833 23.4801 38.2833 23.773 37.9905L25.1872 36.5762Z" fill="white"/>
</svg>
