<svg width="27" height="27" viewBox="0 0 27 27" fill="none" xmlns="http://www.w3.org/2000/svg">
<g clip-path="url(#clip0_137_3760)">
<path d="M21.6576 10.9852C21.9543 14.3761 20.0703 17.4594 17.1583 18.8742L14.2649 19.1273L11.3714 19.3805C8.25797 18.4928 5.8672 15.7836 5.57054 12.3927C5.18546 7.99117 8.47449 4.10803 12.9168 3.71938C17.3592 3.33072 21.2726 6.58373 21.6576 10.9852Z" stroke="#121210" stroke-width="2" stroke-linecap="round" stroke-linejoin="round"/>
<path d="M17.1585 18.8742L17.1722 22.9633C17.1731 23.2234 16.9726 23.441 16.7111 23.4639L12.6091 23.8227C12.3476 23.8456 12.1124 23.6661 12.0682 23.4099L11.3716 19.3805" stroke="#121210" stroke-width="2" stroke-linecap="round" stroke-linejoin="round"/>
<path d="M10.467 10.4586L10.7285 13.4472L13.6141 11.689L16.7612 12.9194L16.4997 9.93083" stroke="#121210" stroke-width="2" stroke-linecap="round" stroke-linejoin="round"/>
</g>
<defs>
<clipPath id="clip0_137_3760">
<rect width="24.2228" height="24" fill="white" transform="translate(0.677246 2.78259) rotate(-5)"/>
</clipPath>
</defs>
</svg>
